<svg width="86" height="88" viewBox="0 0 86 88" fill="none" xmlns="http://www.w3.org/2000/svg">
<g clip-path="url(#clip0_1_350)">
<path d="M40.0231 1.69919C41.8677 0.645079 44.1323 0.645079 45.9769 1.69919L78.4769 20.2712C80.3463 21.3394 81.5 23.3275 81.5 25.4806V62.5182C81.5 64.6713 80.3463 66.6593 78.4769 67.7276L45.9769 86.2996C44.1323 87.3537 41.8677 87.3537 40.0231 86.2996L7.5231 67.7276C5.65369 66.6593 4.5 64.6713 4.5 62.5182V25.4806C4.5 23.3275 5.65369 21.3394 7.5231 20.2712L40.0231 1.69919Z" fill="#F8F9FB"/>
<path d="M43 58C44.6568 58 46 59.3432 46 61C46 62.6568 44.6568 64 43 64C41.3432 64 40 62.6568 40 61C40 59.3432 41.3432 58 43 58ZM43 24C49.6274 24 55 29.3726 55 36C55 40.3292 53.4948 42.5814 49.6518 45.8462C45.7972 49.1208 45 50.5938 45 54H41C41 49.052 42.574 46.6104 47.062 42.7978C50.0958 40.2204 51 38.8675 51 36C51 31.5817 47.4182 28 43 28C38.5817 28 35 31.5817 35 36V38H31V36C31 29.3726 36.3726 24 43 24Z" fill="#51A6FF"/>
</g>
<defs>
<clipPath id="clip0_1_350">
<rect width="86" height="88" fill="white"/>
</clipPath>
</defs>
</svg>
